<mxfile host="app.diagrams.net" modified="2023-04-12T03:36:28.598Z" agent="Mozilla/5.0 (Windows NT 10.0; Win64; x64) AppleWebKit/537.36 (KHTML, like Gecko) Chrome/111.0.0.0 Safari/537.36" etag="L94bUV5hgho92Faf7Iw0" version="21.1.6" type="device">
  <diagram id="43le3l5y-8pa5-eBxGcD" name="Страница 1">
    <mxGraphModel dx="1290" dy="2044" grid="1" gridSize="10" guides="1" tooltips="1" connect="1" arrows="1" fold="1" page="1" pageScale="1" pageWidth="827" pageHeight="1169" math="0" shadow="0">
      <root>
        <mxCell id="0" />
        <mxCell id="1" parent="0" />
        <mxCell id="fYPwpbeQ8CJ--PaoiKsm-56" value="Front" style="rounded=0;whiteSpace=wrap;html=1;" parent="1" vertex="1">
          <mxGeometry x="3460" y="1110" width="70" height="90" as="geometry" />
        </mxCell>
        <mxCell id="fYPwpbeQ8CJ--PaoiKsm-57" value="&lt;font style=&quot;font-size: 10px;&quot;&gt;Back 24farmacia.ru&lt;/font&gt;" style="rounded=0;whiteSpace=wrap;html=1;" parent="1" vertex="1">
          <mxGeometry x="3460" y="895" width="70" height="90" as="geometry" />
        </mxCell>
        <mxCell id="fYPwpbeQ8CJ--PaoiKsm-59" value="" style="endArrow=classic;startArrow=classic;html=1;rounded=0;exitX=0;exitY=0.5;exitDx=0;exitDy=0;entryX=1;entryY=0.5;entryDx=0;entryDy=0;" parent="1" source="fYPwpbeQ8CJ--PaoiKsm-57" edge="1">
          <mxGeometry width="50" height="50" relative="1" as="geometry">
            <mxPoint x="3670" y="1155" as="sourcePoint" />
            <mxPoint x="3350" y="940" as="targetPoint" />
            <Array as="points">
              <mxPoint x="3440" y="940" />
            </Array>
          </mxGeometry>
        </mxCell>
        <mxCell id="fYPwpbeQ8CJ--PaoiKsm-60" value="УАС" style="rounded=0;whiteSpace=wrap;html=1;" parent="1" vertex="1">
          <mxGeometry x="3460" y="615" width="70" height="90" as="geometry" />
        </mxCell>
        <mxCell id="fYPwpbeQ8CJ--PaoiKsm-61" value="RMQ" style="rounded=0;whiteSpace=wrap;html=1;" parent="1" vertex="1">
          <mxGeometry x="3460" y="755" width="70" height="90" as="geometry" />
        </mxCell>
        <mxCell id="fYPwpbeQ8CJ--PaoiKsm-62" value="" style="endArrow=classic;startArrow=classic;html=1;rounded=0;exitX=0.5;exitY=0;exitDx=0;exitDy=0;entryX=0.5;entryY=1;entryDx=0;entryDy=0;" parent="1" source="fYPwpbeQ8CJ--PaoiKsm-57" target="fYPwpbeQ8CJ--PaoiKsm-61" edge="1">
          <mxGeometry width="50" height="50" relative="1" as="geometry">
            <mxPoint x="3540" y="950" as="sourcePoint" />
            <mxPoint x="3650" y="950" as="targetPoint" />
          </mxGeometry>
        </mxCell>
        <mxCell id="fYPwpbeQ8CJ--PaoiKsm-110" value="1-6" style="edgeLabel;html=1;align=center;verticalAlign=middle;resizable=0;points=[];fontSize=8;" parent="fYPwpbeQ8CJ--PaoiKsm-62" vertex="1" connectable="0">
          <mxGeometry x="-0.3314" y="-1" relative="1" as="geometry">
            <mxPoint as="offset" />
          </mxGeometry>
        </mxCell>
        <mxCell id="fYPwpbeQ8CJ--PaoiKsm-63" value="" style="endArrow=classic;startArrow=classic;html=1;rounded=0;exitX=0.5;exitY=0;exitDx=0;exitDy=0;entryX=0.5;entryY=1;entryDx=0;entryDy=0;" parent="1" source="fYPwpbeQ8CJ--PaoiKsm-61" target="fYPwpbeQ8CJ--PaoiKsm-60" edge="1">
          <mxGeometry width="50" height="50" relative="1" as="geometry">
            <mxPoint x="3505" y="905" as="sourcePoint" />
            <mxPoint x="3505" y="855" as="targetPoint" />
          </mxGeometry>
        </mxCell>
        <mxCell id="fYPwpbeQ8CJ--PaoiKsm-64" value="API" style="rounded=0;whiteSpace=wrap;html=1;" parent="1" vertex="1">
          <mxGeometry x="3480" y="1020" width="30" height="20" as="geometry" />
        </mxCell>
        <mxCell id="fYPwpbeQ8CJ--PaoiKsm-65" value="" style="endArrow=classic;startArrow=classic;html=1;rounded=0;entryX=0.5;entryY=1;entryDx=0;entryDy=0;" parent="1" edge="1">
          <mxGeometry width="50" height="50" relative="1" as="geometry">
            <mxPoint x="3495" y="1020" as="sourcePoint" />
            <mxPoint x="3494.71" y="985" as="targetPoint" />
          </mxGeometry>
        </mxCell>
        <mxCell id="fYPwpbeQ8CJ--PaoiKsm-66" value="" style="endArrow=classic;startArrow=classic;html=1;rounded=0;exitX=0.5;exitY=0;exitDx=0;exitDy=0;entryX=0.5;entryY=1;entryDx=0;entryDy=0;" parent="1" source="fYPwpbeQ8CJ--PaoiKsm-56" target="fYPwpbeQ8CJ--PaoiKsm-64" edge="1">
          <mxGeometry width="50" height="50" relative="1" as="geometry">
            <mxPoint x="3494.7100000000005" y="1175" as="sourcePoint" />
            <mxPoint x="3494.7100000000005" y="1125" as="targetPoint" />
          </mxGeometry>
        </mxCell>
        <mxCell id="fYPwpbeQ8CJ--PaoiKsm-67" value="to be step 2" style="text;html=1;strokeColor=none;fillColor=none;align=center;verticalAlign=middle;whiteSpace=wrap;rounded=0;" parent="1" vertex="1">
          <mxGeometry x="3460" y="585" width="70" height="30" as="geometry" />
        </mxCell>
        <mxCell id="fYPwpbeQ8CJ--PaoiKsm-68" value="product balances&lt;br&gt;service" style="rounded=0;whiteSpace=wrap;html=1;" parent="1" vertex="1">
          <mxGeometry x="3640" y="755" width="70" height="90" as="geometry" />
        </mxCell>
        <mxCell id="fYPwpbeQ8CJ--PaoiKsm-72" value="" style="endArrow=classic;html=1;rounded=0;fontSize=8;exitX=1;exitY=0.5;exitDx=0;exitDy=0;entryX=0;entryY=0.5;entryDx=0;entryDy=0;startArrow=none;" parent="1" source="fYPwpbeQ8CJ--PaoiKsm-61" target="fYPwpbeQ8CJ--PaoiKsm-68" edge="1">
          <mxGeometry width="50" height="50" relative="1" as="geometry">
            <mxPoint x="3590" y="800" as="sourcePoint" />
            <mxPoint x="3590" y="795" as="targetPoint" />
          </mxGeometry>
        </mxCell>
        <mxCell id="fYPwpbeQ8CJ--PaoiKsm-111" value="7,8" style="edgeLabel;html=1;align=center;verticalAlign=middle;resizable=0;points=[];fontSize=8;" parent="fYPwpbeQ8CJ--PaoiKsm-72" vertex="1" connectable="0">
          <mxGeometry x="-0.4144" relative="1" as="geometry">
            <mxPoint as="offset" />
          </mxGeometry>
        </mxCell>
        <mxCell id="fYPwpbeQ8CJ--PaoiKsm-81" value="" style="endArrow=classic;startArrow=classic;html=1;rounded=0;exitX=0;exitY=0.5;exitDx=0;exitDy=0;entryX=1;entryY=0.5;entryDx=0;entryDy=0;fillColor=#d5e8d4;strokeColor=#82b366;" parent="1" edge="1">
          <mxGeometry width="50" height="50" relative="1" as="geometry">
            <mxPoint x="3800" y="1138" as="sourcePoint" />
            <mxPoint x="3710" y="1138" as="targetPoint" />
            <Array as="points" />
          </mxGeometry>
        </mxCell>
        <mxCell id="fYPwpbeQ8CJ--PaoiKsm-82" value="integrations&lt;br&gt;service" style="rounded=0;whiteSpace=wrap;html=1;fillColor=#d5e8d4;strokeColor=#82b366;" parent="1" vertex="1">
          <mxGeometry x="3640" y="1093" width="70" height="90" as="geometry" />
        </mxCell>
        <mxCell id="fYPwpbeQ8CJ--PaoiKsm-114" value="" style="endArrow=classic;startArrow=classic;html=1;rounded=0;exitX=0;exitY=0.5;exitDx=0;exitDy=0;entryX=1;entryY=0.5;entryDx=0;entryDy=0;" parent="1" edge="1">
          <mxGeometry width="50" height="50" relative="1" as="geometry">
            <mxPoint x="3800" y="800" as="sourcePoint" />
            <mxPoint x="3710" y="800" as="targetPoint" />
            <Array as="points" />
          </mxGeometry>
        </mxCell>
        <mxCell id="fYPwpbeQ8CJ--PaoiKsm-118" value="API" style="rounded=0;whiteSpace=wrap;html=1;fillColor=#d5e8d4;strokeColor=#82b366;glass=1;" parent="1" vertex="1">
          <mxGeometry x="3572.5" y="1223" width="30" height="20" as="geometry" />
        </mxCell>
        <mxCell id="fYPwpbeQ8CJ--PaoiKsm-120" value="&lt;font style=&quot;font-size: 9px;&quot;&gt;partner&lt;/font&gt;" style="ellipse;whiteSpace=wrap;html=1;aspect=fixed;fontSize=25;fillColor=#e1d5e7;strokeColor=#9673a6;" parent="1" vertex="1">
          <mxGeometry x="3657.5" y="1267" width="40" height="40" as="geometry" />
        </mxCell>
        <mxCell id="fYPwpbeQ8CJ--PaoiKsm-121" value="&lt;font style=&quot;font-size: 9px;&quot;&gt;partner&lt;/font&gt;" style="ellipse;whiteSpace=wrap;html=1;aspect=fixed;fontSize=25;fillColor=#e1d5e7;strokeColor=#9673a6;" parent="1" vertex="1">
          <mxGeometry x="3595.5" y="1267" width="40" height="40" as="geometry" />
        </mxCell>
        <mxCell id="fYPwpbeQ8CJ--PaoiKsm-122" value="&lt;font style=&quot;font-size: 9px;&quot;&gt;partner&lt;/font&gt;" style="ellipse;whiteSpace=wrap;html=1;aspect=fixed;fontSize=25;fillColor=#e1d5e7;strokeColor=#9673a6;" parent="1" vertex="1">
          <mxGeometry x="3548" y="1267" width="40" height="40" as="geometry" />
        </mxCell>
        <mxCell id="fYPwpbeQ8CJ--PaoiKsm-123" value="" style="endArrow=classic;startArrow=classic;html=1;rounded=0;fontSize=9;endSize=6;exitX=0.5;exitY=0;exitDx=0;exitDy=0;entryX=0.25;entryY=1;entryDx=0;entryDy=0;fillColor=#e1d5e7;strokeColor=#9673a6;" parent="1" source="fYPwpbeQ8CJ--PaoiKsm-122" target="fYPwpbeQ8CJ--PaoiKsm-118" edge="1">
          <mxGeometry width="50" height="50" relative="1" as="geometry">
            <mxPoint x="3752.5" y="1313" as="sourcePoint" />
            <mxPoint x="3802.5" y="1263" as="targetPoint" />
          </mxGeometry>
        </mxCell>
        <mxCell id="fYPwpbeQ8CJ--PaoiKsm-124" value="" style="endArrow=classic;startArrow=classic;html=1;rounded=0;fontSize=9;endSize=6;exitX=0.5;exitY=0;exitDx=0;exitDy=0;entryX=0.75;entryY=1;entryDx=0;entryDy=0;fillColor=#e1d5e7;strokeColor=#9673a6;" parent="1" source="fYPwpbeQ8CJ--PaoiKsm-121" target="fYPwpbeQ8CJ--PaoiKsm-118" edge="1">
          <mxGeometry width="50" height="50" relative="1" as="geometry">
            <mxPoint x="3742.5" y="1343" as="sourcePoint" />
            <mxPoint x="3702.5" y="1263" as="targetPoint" />
          </mxGeometry>
        </mxCell>
        <mxCell id="fYPwpbeQ8CJ--PaoiKsm-125" value="Ext: API" style="rounded=0;whiteSpace=wrap;html=1;fillColor=#e1d5e7;strokeColor=#9673a6;" parent="1" vertex="1">
          <mxGeometry x="3650" y="1227" width="55" height="20" as="geometry" />
        </mxCell>
        <mxCell id="fYPwpbeQ8CJ--PaoiKsm-126" value="" style="endArrow=classic;startArrow=classic;html=1;rounded=0;entryX=0.5;entryY=1;entryDx=0;entryDy=0;strokeWidth=0.5;fillColor=#e1d5e7;strokeColor=#9673a6;" parent="1" edge="1">
          <mxGeometry width="50" height="50" relative="1" as="geometry">
            <mxPoint x="3677.5" y="1267" as="sourcePoint" />
            <mxPoint x="3677.3" y="1246.9999999999995" as="targetPoint" />
          </mxGeometry>
        </mxCell>
        <mxCell id="qzzsK6OROUIXsxa8lg81-6" style="edgeStyle=orthogonalEdgeStyle;rounded=0;orthogonalLoop=1;jettySize=auto;html=1;exitX=0.5;exitY=1;exitDx=0;exitDy=0;fillColor=#e1d5e7;strokeColor=#9673a6;startArrow=classic;startFill=1;" parent="1" source="fYPwpbeQ8CJ--PaoiKsm-82" edge="1">
          <mxGeometry relative="1" as="geometry">
            <mxPoint x="3705" y="1253" as="sourcePoint" />
            <mxPoint x="3675" y="1228" as="targetPoint" />
          </mxGeometry>
        </mxCell>
        <mxCell id="yHxMO_GOp0gBx7RKv9g0-15" value="Интернет магазин&lt;br style=&quot;border-color: var(--border-color);&quot;&gt;DB&lt;br style=&quot;border-color: var(--border-color);&quot;&gt;Postgree" style="shape=cylinder3;whiteSpace=wrap;html=1;boundedLbl=1;backgroundOutline=1;size=15;" parent="1" vertex="1">
          <mxGeometry x="3270" y="875" width="80" height="120" as="geometry" />
        </mxCell>
        <mxCell id="yHxMO_GOp0gBx7RKv9g0-16" value="Остатки и цены&lt;br style=&quot;border-color: var(--border-color);&quot;&gt;DB&lt;br style=&quot;border-color: var(--border-color);&quot;&gt;Postgree" style="shape=cylinder3;whiteSpace=wrap;html=1;boundedLbl=1;backgroundOutline=1;size=15;" parent="1" vertex="1">
          <mxGeometry x="3800" y="740" width="80" height="120" as="geometry" />
        </mxCell>
        <mxCell id="yHxMO_GOp0gBx7RKv9g0-17" value="DB&lt;br style=&quot;border-color: var(--border-color);&quot;&gt;" style="shape=cylinder3;whiteSpace=wrap;html=1;boundedLbl=1;backgroundOutline=1;size=15;" parent="1" vertex="1">
          <mxGeometry x="3800" y="1078" width="80" height="120" as="geometry" />
        </mxCell>
        <mxCell id="yHxMO_GOp0gBx7RKv9g0-18" value="" style="endArrow=classic;startArrow=classic;html=1;rounded=0;fontSize=9;endSize=6;exitX=-0.01;exitY=0.554;exitDx=0;exitDy=0;entryX=0.5;entryY=0;entryDx=0;entryDy=0;fillColor=#fff2cc;strokeColor=#82b366;exitPerimeter=0;" parent="1" source="fYPwpbeQ8CJ--PaoiKsm-82" target="fYPwpbeQ8CJ--PaoiKsm-118" edge="1">
          <mxGeometry width="50" height="50" relative="1" as="geometry">
            <mxPoint x="3610" y="1313" as="sourcePoint" />
            <mxPoint x="3573" y="1253" as="targetPoint" />
            <Array as="points">
              <mxPoint x="3587.5" y="1143" />
            </Array>
          </mxGeometry>
        </mxCell>
        <mxCell id="tIhBwqj1bTPiwcQH6TQX-1" value="RMQ&lt;br&gt;24farmacia" style="rounded=0;whiteSpace=wrap;html=1;" parent="1" vertex="1">
          <mxGeometry x="3640" y="895" width="70" height="90" as="geometry" />
        </mxCell>
        <mxCell id="tIhBwqj1bTPiwcQH6TQX-2" value="" style="endArrow=classic;startArrow=classic;html=1;rounded=0;exitX=0.5;exitY=0;exitDx=0;exitDy=0;entryX=0.5;entryY=1;entryDx=0;entryDy=0;" parent="1" source="tIhBwqj1bTPiwcQH6TQX-1" target="fYPwpbeQ8CJ--PaoiKsm-68" edge="1">
          <mxGeometry width="50" height="50" relative="1" as="geometry">
            <mxPoint x="3810" y="810" as="sourcePoint" />
            <mxPoint x="3720" y="810" as="targetPoint" />
            <Array as="points" />
          </mxGeometry>
        </mxCell>
        <mxCell id="tIhBwqj1bTPiwcQH6TQX-3" value="" style="endArrow=classic;startArrow=classic;html=1;rounded=0;exitX=0;exitY=0.5;exitDx=0;exitDy=0;entryX=1;entryY=0.5;entryDx=0;entryDy=0;" parent="1" source="tIhBwqj1bTPiwcQH6TQX-1" target="fYPwpbeQ8CJ--PaoiKsm-57" edge="1">
          <mxGeometry width="50" height="50" relative="1" as="geometry">
            <mxPoint x="3577.52" y="985" as="sourcePoint" />
            <mxPoint x="3577.52" y="937" as="targetPoint" />
            <Array as="points" />
          </mxGeometry>
        </mxCell>
        <mxCell id="tIhBwqj1bTPiwcQH6TQX-4" value="" style="endArrow=classic;startArrow=classic;html=1;rounded=0;exitX=0.5;exitY=0;exitDx=0;exitDy=0;entryX=0.5;entryY=1;entryDx=0;entryDy=0;" parent="1" source="fYPwpbeQ8CJ--PaoiKsm-82" edge="1">
          <mxGeometry width="50" height="50" relative="1" as="geometry">
            <mxPoint x="3674.58" y="1035" as="sourcePoint" />
            <mxPoint x="3674.58" y="985" as="targetPoint" />
            <Array as="points" />
          </mxGeometry>
        </mxCell>
      </root>
    </mxGraphModel>
  </diagram>
</mxfile>
